<svg width="1600" height="1200" viewBox="0 0 1600 1200" fill="none" xmlns="http://www.w3.org/2000/svg">
  <rect width="1600" height="1200" fill="#020B09"/>
  <g opacity="0.28" stroke="#35FFC2" stroke-width="1">
    <path d="M0 40H1600M0 80H1600M0 120H1600M0 160H1600M0 200H1600M0 240H1600M0 280H1600M0 320H1600M0 360H1600M0 400H1600M0 440H1600M0 480H1600M0 520H1600M0 560H1600M0 600H1600M0 640H1600M0 680H1600M0 720H1600M0 760H1600M0 800H1600M0 840H1600M0 880H1600M0 920H1600M0 960H1600M0 1000H1600M0 1040H1600M0 1080H1600M0 1120H1600M0 1160H1600"/>
    <path d="M40 0V1200M80 0V1200M120 0V1200M160 0V1200M200 0V1200M240 0V1200M280 0V1200M320 0V1200M360 0V1200M400 0V1200M440 0V1200M480 0V1200M520 0V1200M560 0V1200M600 0V1200M640 0V1200M680 0V1200M720 0V1200M760 0V1200M800 0V1200M840 0V1200M880 0V1200M920 0V1200M960 0V1200M1000 0V1200M1040 0V1200M1080 0V1200M1120 0V1200M1160 0V1200M1200 0V1200M1240 0V1200M1280 0V1200M1320 0V1200M1360 0V1200M1400 0V1200M1440 0V1200M1480 0V1200M1520 0V1200M1560 0V1200"/>
  </g>
  <g opacity="0.18">
    <circle cx="1240" cy="250" r="260" fill="#2CF7B6"/>
    <circle cx="250" cy="870" r="220" fill="#0C6B56"/>
  </g>
</svg>
